<?xml version="1.0" encoding="UTF-8" standalone="no"?>
<!-- Created with Inkscape (http://www.inkscape.org/) -->

<svg
   xmlns:dc="http://purl.org/dc/elements/1.1/"
   xmlns:cc="http://creativecommons.org/ns#"
   xmlns:rdf="http://www.w3.org/1999/02/22-rdf-syntax-ns#"
   xmlns:svg="http://www.w3.org/2000/svg"
   xmlns="http://www.w3.org/2000/svg"
   xmlns:sodipodi="http://sodipodi.sourceforge.net/DTD/sodipodi-0.dtd"
   xmlns:inkscape="http://www.inkscape.org/namespaces/inkscape"
   version="1.1"
   id="svg834"
   xml:space="preserve"
   width="816"
   height="496"
   viewBox="0 0 816 496"
   sodipodi:docname="Faith Pres Gtown Logo.svg"
   inkscape:version="0.92.2 5c3e80d, 2017-08-06"
   inkscape:export-filename="/Users/traviswindsor-cummings/Desktop/Faith Presbyterian Germantown/Faith Vector Art/FPC Sermons Logo.png"
   inkscape:export-xdpi="96"
   inkscape:export-ydpi="96"><metadata
     id="metadata840"><rdf:RDF><cc:Work
         rdf:about=""><dc:format>image/svg+xml</dc:format><dc:type
           rdf:resource="http://purl.org/dc/dcmitype/StillImage" /><dc:title /></cc:Work></rdf:RDF></metadata><defs
     id="defs838"><clipPath
       clipPathUnits="userSpaceOnUse"
       id="clipPath850"><path
         d="M 0,372 H 612 V 0 H 0 Z"
         id="path848"
         inkscape:connector-curvature="0" /></clipPath></defs><sodipodi:namedview
     pagecolor="#ffffff"
     bordercolor="#666666"
     borderopacity="1"
     objecttolerance="10"
     gridtolerance="10"
     guidetolerance="10"
     inkscape:pageopacity="0"
     inkscape:pageshadow="2"
     inkscape:window-width="1440"
     inkscape:window-height="856"
     id="namedview836"
     showgrid="false"
     showborder="false"
     inkscape:zoom="0.8"
     inkscape:cx="230.5"
     inkscape:cy="236.55491"
     inkscape:window-x="0"
     inkscape:window-y="0"
     inkscape:window-maximized="0"
     inkscape:current-layer="layer1"
     inkscape:pagecheckerboard="true"
     showguides="true"
     inkscape:guide-bbox="true"
     inkscape:snap-smooth-nodes="true"
     inkscape:snap-intersection-paths="true"
     inkscape:object-paths="true"
     inkscape:snap-bbox="true"
     inkscape:snap-to-guides="false" /><g
     inkscape:groupmode="layer"
     id="layer2"
     inkscape:label="BG" /><g
     id="g842"
     inkscape:groupmode="layer"
     inkscape:label="Faith_Logo"
     transform="matrix(1.3333333,0,0,-1.3333333,0,496)" /><g
     inkscape:groupmode="layer"
     id="layer1"
     inkscape:label="G'town"><g
       id="g1398"><g
         transform="matrix(1.3333333,0,0,-1.3333333,-8.7504651,496.78613)"
         id="g846"
         clip-path="url(#clipPath850)"><g
           id="g852"
           transform="translate(467.2684,151.9841)"><path
             d="m 0,0 c 23.179,-96.328 -42.876,-94.67 -44.898,-98.934 3.481,-0.997 20.023,-7.815 34.706,3.907 -4.004,-29.957 9.81,5.384 16.461,5.206 5.192,-0.136 4.748,-14.242 10.237,-14.322 6.673,18.234 18.674,-6.482 22.69,-6.512 4.003,7.813 -19.297,20.375 -3.115,20.404 2.726,0.003 13.825,-17.818 16.462,-17.801 1.337,22.143 10.236,6.511 21.803,10.852 C 65.004,-84.175 1.245,-87.154 25.402,10.463 18.283,1.783 9.221,-0.47 0,0"
             style="fill:#2e4959;fill-opacity:1;fill-rule:evenodd;stroke:none"
             id="path854"
             inkscape:connector-curvature="0" /></g><g
           id="g856"
           transform="translate(147.0658,123.1063)" /><g
           id="g860"
           transform="translate(184.5706,116.2771)" /><g
           id="g864"
           transform="translate(205.4504,98.8354)" /><g
           id="g868"
           transform="translate(238.7406,123.2377)" /><g
           id="g872"
           transform="translate(253.5182,98.5717)" /><g
           id="g876"
           transform="translate(289.9561,124.2505)" /><g
           id="g880"
           transform="translate(314.033,120.9905)" /><g
           id="g884"
           transform="translate(335.6427,98.8354)" /><g
           id="g888"
           transform="translate(365.9234,116.2771)" /><g
           id="g892"
           transform="translate(381.5233,96.2817)" /><g
           id="g896"
           transform="translate(404.0088,106.8096)" /><g
           id="g900"
           transform="translate(441.3643,110.2447)" /><g
           id="g904"
           transform="translate(391.9684,258.9561)"><path
             d="M 0,0 C 11.774,0.182 22.735,13.167 15.522,23.62 5.849,20.673 -2.117,12.495 0,0"
             style="fill:#ddbc46;fill-opacity:1;fill-rule:nonzero;stroke:none"
             id="path906"
             inkscape:connector-curvature="0" /></g><g
           id="g908"
           transform="translate(402.089,287.9767)"><path
             d="M 0,0 C 10.999,-5.363 24.029,1.104 26.316,10.794 15.284,17.626 3.585,8.785 0,0"
             style="fill:#ddbc46;fill-opacity:1;fill-rule:nonzero;stroke:none"
             id="path910"
             inkscape:connector-curvature="0" /></g><g
           id="g912"
           transform="translate(377.7971,236.6888)"><path
             d="M 0,0 C 1.786,-11.265 9.838,-16.254 23.618,-15.517 21.094,-5.425 12.654,2.277 0,0"
             style="fill:#ddbc46;fill-opacity:1;fill-rule:nonzero;stroke:none"
             id="path914"
             inkscape:connector-curvature="0" /></g><g
           id="g916"
           transform="translate(397.369,235.3382)"><path
             d="M 0,0 C 6.081,12.448 -1.952,24.502 -12.822,26.32 -13.886,12.209 -9.482,3.563 0,0"
             style="fill:#ddbc46;fill-opacity:1;fill-rule:nonzero;stroke:none"
             id="path918"
             inkscape:connector-curvature="0" /></g><g
           id="g920"
           transform="translate(441.9038,243.4361)"><path
             d="M 0,0 C 2.606,14.442 -4.352,24.792 -16.192,26.994 -18.907,12.557 -9.578,4.385 0,0"
             style="fill:#ddbc46;fill-opacity:1;fill-rule:nonzero;stroke:none"
             id="path922"
             inkscape:connector-curvature="0" /></g><g
           id="g924"
           transform="translate(412.2142,266.3785)"><path
             d="M 0,0 C 11.818,0.844 19.396,9.31 17.544,21.598 3.976,22.117 0.839,12.208 0,0"
             style="fill:#ddbc46;fill-opacity:1;fill-rule:nonzero;stroke:none"
             id="path926"
             inkscape:connector-curvature="0" /></g><g
           id="g928"
           transform="translate(453.3778,263.6828)"><path
             d="M 0,0 C -2.379,8.882 -12.423,16.492 -23.62,12.142 -20.872,2.972 -12.715,-0.796 0,0"
             style="fill:#ddbc46;fill-opacity:1;fill-rule:nonzero;stroke:none"
             id="path930"
             inkscape:connector-curvature="0" /></g><g
           id="g932"
           transform="translate(431.1075,294.7251)"><path
             d="M 0,0 C 2.825,-11.125 11.184,-16.714 24.289,-17.55 23.179,-5.063 12.753,1.357 0,0"
             style="fill:#ddbc46;fill-opacity:1;fill-rule:nonzero;stroke:none"
             id="path934"
             inkscape:connector-curvature="0" /></g><g
           id="g936"
           transform="translate(412.889,214.4185)"><path
             d="M 0,0 C -6.759,6.037 -26.784,8.611 -29.018,-3.374 -22.855,-11.208 -3.452,-8.366 0,0"
             style="fill:#ddbc46;fill-opacity:1;fill-rule:nonzero;stroke:none"
             id="path938"
             inkscape:connector-curvature="0" /></g><g
           id="g940"
           transform="translate(442.5787,238.0375)"><path
             d="M 0,0 C -4.546,6.412 -23.592,10.638 -28.341,1.351 -23.509,-5.782 -4.355,-11.302 0,0"
             style="fill:#ddbc46;fill-opacity:1;fill-rule:nonzero;stroke:none"
             id="path942"
             inkscape:connector-curvature="0" /></g><g
           id="g944"
           transform="translate(495.2115,186.7524)"><path
             d="M 0,0 C -3.934,7.562 -22.854,10.681 -29.69,3.377 -25.263,-4.848 -7.759,-6.345 0,0"
             style="fill:#ddbc46;fill-opacity:1;fill-rule:nonzero;stroke:none"
             id="path946"
             inkscape:connector-curvature="0" /></g><g
           id="g948"
           transform="translate(458.1007,215.0963)"><path
             d="M 0,0 C 4.103,-10.065 12.834,-15.509 24.97,-17.545 22.878,-5.896 14.542,3.043 0,0"
             style="fill:#ddbc46;fill-opacity:1;fill-rule:nonzero;stroke:none"
             id="path950"
             inkscape:connector-curvature="0" /></g><g
           id="g952"
           transform="translate(464.1751,203.6222)"><path
             d="M 0,0 C -11.727,-1.769 -15.593,-11.399 -16.198,-24.296 -4.087,-23.238 2.623,-13.576 0,0"
             style="fill:#ddbc46;fill-opacity:1;fill-rule:nonzero;stroke:none"
             id="path954"
             inkscape:connector-curvature="0" /></g><g
           id="g956"
           transform="translate(508.0381,210.3724)"><path
             d="M 0,0 C -14.575,1.75 -18.613,-7.035 -21.593,-16.872 -10.628,-15.015 -1.805,-11.017 0,0"
             style="fill:#ddbc46;fill-opacity:1;fill-rule:nonzero;stroke:none"
             id="path958"
             inkscape:connector-curvature="0" /></g><g
           id="g960"
           transform="translate(426.3838,249.5097)"><path
             d="M 0,0 C -2.876,9.928 -18.024,16.272 -28.343,8.772 -25.306,-0.377 -11.011,-3.027 0,0"
             style="fill:#ddbc46;fill-opacity:1;fill-rule:nonzero;stroke:none"
             id="path962"
             inkscape:connector-curvature="0" /></g><g
           id="g964"
           transform="translate(456.7491,320.3684)"><path
             d="m 0,0 c -10.882,-3.067 -17.544,-10.351 -18.894,-22.945 8.547,-1.173 16.638,4.277 19.572,10.121 C 2.321,-9.549 4.358,-2.527 0,0"
             style="fill:#ddbc46;fill-opacity:1;fill-rule:nonzero;stroke:none"
             id="path966"
             inkscape:connector-curvature="0" /></g><g
           id="g968"
           transform="translate(450.6796,202.2744)"><path
             d="M 0,0 C -13.295,3.555 -26.688,-0.677 -30.368,-10.799 -18.147,-15.777 -2.87,-10.637 0,0"
             style="fill:#ddbc46;fill-opacity:1;fill-rule:nonzero;stroke:none"
             id="path970"
             inkscape:connector-curvature="0" /></g><g
           id="g972"
           transform="translate(404.7911,248.1627)"><path
             d="M 0,0 C -7.759,-8.138 -2.483,-25.923 6.746,-29.019 11.237,-19.225 10.496,-2.433 0,0"
             style="fill:#ddbc46;fill-opacity:1;fill-rule:nonzero;stroke:none"
             id="path974"
             inkscape:connector-curvature="0" /></g><g
           id="g976"
           transform="translate(426.3838,200.9257)"><path
             d="M 0,0 C 5.92,10.21 2.73,26.74 -7.422,30.365 -14.662,20.765 -8.96,3.622 0,0"
             style="fill:#ddbc46;fill-opacity:1;fill-rule:nonzero;stroke:none"
             id="path978"
             inkscape:connector-curvature="0" /></g><g
           id="g980"
           transform="translate(510.7363,293.3725)"><path
             d="M 0,0 C -3.562,-12.421 5.822,-21.529 20.243,-20.244 18.799,-8.189 13.525,0.029 0,0"
             style="fill:#ddbc46;fill-opacity:1;fill-rule:nonzero;stroke:none"
             id="path982"
             inkscape:connector-curvature="0" /></g><g
           id="g984"
           transform="translate(531.6541,230.6181)"><path
             d="M 0,0 C -11.702,-3.145 -18.601,-11.095 -17.544,-26.996 -7.75,-25.052 1.584,-13.323 0,0"
             style="fill:#ddbc46;fill-opacity:1;fill-rule:nonzero;stroke:none"
             id="path986"
             inkscape:connector-curvature="0" /></g><g
           id="g988"
           transform="translate(458.7765,258.9561)"><path
             d="M 0,0 C 7.315,3.208 15.463,17.055 8.772,25.642 0.658,22.098 -8.13,9.767 0,0"
             style="fill:#ddbc46;fill-opacity:1;fill-rule:nonzero;stroke:none"
             id="path990"
             inkscape:connector-curvature="0" /></g><g
           id="g992"
           transform="translate(458.7765,250.1873)"><path
             d="M 0,0 C 11.487,-3.385 24.519,0.932 26.315,11.471 14.76,16.856 0.98,11.414 0,0"
             style="fill:#ddbc46;fill-opacity:1;fill-rule:nonzero;stroke:none"
             id="path994"
             inkscape:connector-curvature="0" /></g><g
           id="g996"
           transform="translate(495.8911,213.7484)"><path
             d="M 0,0 C 11.82,0.318 19.539,4.751 18.894,17.542 7.739,19.214 2.251,9.469 0,0"
             style="fill:#ddbc46;fill-opacity:1;fill-rule:nonzero;stroke:none"
             id="path998"
             inkscape:connector-curvature="0" /></g><g
           id="g1000"
           transform="translate(574.843,256.9308)"><path
             d="M 0,0 C 6.975,7.122 8.332,24.457 -0.678,30.371 -9.227,25.618 -10.168,3.754 0,0"
             style="fill:#ddbc46;fill-opacity:1;fill-rule:nonzero;stroke:none"
             id="path1002"
             inkscape:connector-curvature="0" /></g><g
           id="g1004"
           transform="translate(505.3358,255.5851)"><path
             d="M 0,0 C 7.911,-7.098 24.216,-3.473 28.343,4.721 20.81,12.868 3.5,10.285 0,0"
             style="fill:#ddbc46;fill-opacity:1;fill-rule:nonzero;stroke:none"
             id="path1006"
             inkscape:connector-curvature="0" /></g><g
           id="g1008"
           transform="translate(566.7451,287.3018)"><path
             d="M 0,0 C -10.753,3.629 -20.953,-3.366 -23.617,-12.149 -14.648,-19.182 1.605,-13.671 0,0"
             style="fill:#ddbc46;fill-opacity:1;fill-rule:nonzero;stroke:none"
             id="path1010"
             inkscape:connector-curvature="0" /></g><g
           id="g1012"
           transform="translate(450.6796,260.3058)"><path
             d="M 0,0 C -9.125,-7.509 -7.951,-21.182 -4.05,-33.74 5.386,-28.843 11.973,-7.176 0,0"
             style="fill:#ddbc46;fill-opacity:1;fill-rule:nonzero;stroke:none"
             id="path1014"
             inkscape:connector-curvature="0" /></g><g
           id="g1016"
           transform="translate(534.3535,276.5027)"><path
             d="M 0,0 C -3.774,-10.259 2.261,-20.077 11.468,-21.592 15.332,-10.79 10.275,-0.759 0,0"
             style="fill:#ddbc46;fill-opacity:1;fill-rule:nonzero;stroke:none"
             id="path1018"
             inkscape:connector-curvature="0" /></g><g
           id="g1020"
           transform="translate(521.5327,200.9257)"><path
             d="M 0,0 C -11.872,2.384 -19.413,-5.304 -24.295,-12.146 -14.009,-19.611 -1.043,-11.66 0,0"
             style="fill:#ddbc46;fill-opacity:1;fill-rule:nonzero;stroke:none"
             id="path1022"
             inkscape:connector-curvature="0" /></g><g
           id="g1024"
           transform="translate(491.1673,256.9308)"><path
             d="M 0,0 C 12.635,0.412 20.948,5.146 22.943,16.198 9.856,20.93 0.514,12.136 0,0"
             style="fill:#ddbc46;fill-opacity:1;fill-rule:nonzero;stroke:none"
             id="path1026"
             inkscape:connector-curvature="0" /></g><g
           id="g1028"
           transform="translate(481.0439,289.3236)"><path
             d="M 0,0 C 3.296,-9.353 16.393,-13.6 27.668,-10.794 26.233,0.583 10.358,7.772 0,0"
             style="fill:#ddbc46;fill-opacity:1;fill-rule:nonzero;stroke:none"
             id="path1030"
             inkscape:connector-curvature="0" /></g><g
           id="g1032"
           transform="translate(491.1673,263.6828)"><path
             d="M 0,0 C 2.495,13.831 -5.05,20.807 -18.224,20.915 -20.043,8.715 -12.374,0.247 0,0"
             style="fill:#ddbc46;fill-opacity:1;fill-rule:nonzero;stroke:none"
             id="path1034"
             inkscape:connector-curvature="0" /></g><g
           id="g1036"
           transform="translate(448.6511,294.7251)"><path
             d="M 0,0 C 5.461,-7.79 20.259,-8.49 30.368,-4.727 27.85,7.962 6.961,9.349 0,0"
             style="fill:#ddbc46;fill-opacity:1;fill-rule:nonzero;stroke:none"
             id="path1038"
             inkscape:connector-curvature="0" /></g><g
           id="g1040"
           transform="translate(487.7912,244.1109)"><path
             d="M 0,0 C -10.608,7.264 -27.6,1.833 -29.015,-10.12 -17.872,-14.842 -3.314,-9.407 0,0"
             style="fill:#ddbc46;fill-opacity:1;fill-rule:nonzero;stroke:none"
             id="path1042"
             inkscape:connector-curvature="0" /></g><g
           id="g1044"
           transform="translate(476.995,227.917)"><path
             d="M 0,0 C -9.186,5.715 -26.217,0.997 -29.018,-8.098 -18.55,-12.708 -3.387,-8.743 0,0"
             style="fill:#ddbc46;fill-opacity:1;fill-rule:nonzero;stroke:none"
             id="path1046"
             inkscape:connector-curvature="0" /></g><g
           id="g1048"
           transform="translate(456.7491,203.6222)"><path
             d="M 0,0 C -3.6,13.046 -11.474,21.821 -25.642,24.295 -24.421,8.868 -17.148,-0.501 0,0"
             style="fill:#ddbc46;fill-opacity:1;fill-rule:nonzero;stroke:none"
             id="path1050"
             inkscape:connector-curvature="0" /></g><g
           id="g1052"
           transform="translate(497.9156,255.5851)"><path
             d="M 0,0 C -7.13,-5.635 -7.729,-21.875 -2.025,-29.696 7.532,-25.871 11.549,-4.619 0,0"
             style="fill:#ddbc46;fill-opacity:1;fill-rule:nonzero;stroke:none"
             id="path1054"
             inkscape:connector-curvature="0" /></g><g
           id="g1056"
           transform="translate(489.1408,206.3245)"><path
             d="M 0,0 C 7.232,7.771 1.861,23.469 -6.748,25.641 -13.74,17.681 -8.573,2.451 0,0"
             style="fill:#ddbc46;fill-opacity:1;fill-rule:nonzero;stroke:none"
             id="path1058"
             inkscape:connector-curvature="0" /></g><g
           id="g1060"
           transform="translate(536.3779,304.8437)"><path
             d="M 0,0 C -7.678,-5.522 -6.754,-24.083 2.025,-27.669 12.003,-22.988 10.945,-3.093 0,0"
             style="fill:#ddbc46;fill-opacity:1;fill-rule:nonzero;stroke:none"
             id="path1062"
             inkscape:connector-curvature="0" /></g><g
           id="g1064"
           transform="translate(379.1477,176.6282)"><path
             d="M 0,0 C 9.712,-4.743 22.888,-0.909 24.969,8.1 17.135,17.205 1.17,7.374 0,0"
             style="fill:#ddbc46;fill-opacity:1;fill-rule:nonzero;stroke:none"
             id="path1066"
             inkscape:connector-curvature="0" /></g><g
           id="g1068"
           transform="translate(402.7648,191.4754)"><path
             d="M 0,0 C -2.869,9.767 -13.635,17.628 -25.642,12.147 -23.792,1.788 -10.883,-5.002 0,0"
             style="fill:#ddbc46;fill-opacity:1;fill-rule:nonzero;stroke:none"
             id="path1070"
             inkscape:connector-curvature="0" /></g><g
           id="g1072"
           transform="translate(411.5366,210.3724)"><path
             d="M 0,0 C -9.633,-7.164 -8.523,-26.713 2.026,-32.395 8.32,-24.362 8.35,-5.832 0,0"
             style="fill:#ddbc46;fill-opacity:1;fill-rule:nonzero;stroke:none"
             id="path1074"
             inkscape:connector-curvature="0" /></g><g
           id="g1076"
           transform="translate(412.2142,162.4605)"><path
             d="M 0,0 C 12.297,0.993 19.776,10.337 17.544,23.617 6.317,21.125 -0.364,14.085 0,0"
             style="fill:#ddbc46;fill-opacity:1;fill-rule:nonzero;stroke:none"
             id="path1078"
             inkscape:connector-curvature="0" /></g><g
           id="g1080"
           transform="translate(389.271,265.0315)"><path
             d="M 0,0 C 0.6,12.003 -18.987,15.85 -26.992,8.772 -21.842,2.062 -10.85,-5.159 0,0"
             style="fill:#ddbc46;fill-opacity:1;fill-rule:nonzero;stroke:none"
             id="path1082"
             inkscape:connector-curvature="0" /></g><g
           id="g1084"
           transform="translate(381.847,238.7153)"><path
             d="M 0,0 C 0.227,13.671 -7.375,28.408 -23.621,25.642 -21.131,11.708 -13.663,2.753 0,0"
             style="fill:#ddbc46;fill-opacity:1;fill-rule:nonzero;stroke:none"
             id="path1086"
             inkscape:connector-curvature="0" /></g><g
           id="g1088"
           transform="translate(383.8715,221.8426)"><path
             d="M 0,0 C -11.671,2.415 -21.785,-2.483 -21.592,-14.17 -8.778,-15.067 -1.292,-10.632 0,0"
             style="fill:#ddbc46;fill-opacity:1;fill-rule:nonzero;stroke:none"
             id="path1090"
             inkscape:connector-curvature="0" /></g><g
           id="g1092"
           transform="translate(433.131,187.4302)"><path
             d="M 0,0 C -2.106,-13.654 6.474,-22.268 17.549,-24.97 18.376,-12.638 10.502,-3.246 0,0"
             style="fill:#ddbc46;fill-opacity:1;fill-rule:nonzero;stroke:none"
             id="path1094"
             inkscape:connector-curvature="0" /></g><g
           id="g1096"
           transform="translate(377.7971,224.542)"><path
             d="M 0,0 C -1.645,10.273 -10.836,18.689 -22.944,14.173 -22.041,2.945 -12.704,-2.744 0,0"
             style="fill:#ddbc46;fill-opacity:1;fill-rule:nonzero;stroke:none"
             id="path1098"
             inkscape:connector-curvature="0" /></g><g
           id="g1100"
           transform="translate(383.8715,277.1746)"><path
             d="M 0,0 C 2.451,14.848 -4.351,26.222 -19.569,25.645 -22.246,11.842 -13.168,2 0,0"
             style="fill:#ddbc46;fill-opacity:1;fill-rule:nonzero;stroke:none"
             id="path1102"
             inkscape:connector-curvature="0" /></g><g
           id="g1104"
           transform="translate(559.9978,219.1442)"><path
             d="m 0,0 c -3.057,9.218 -12.28,15.439 -24.97,12.821 2.315,-7.382 5.767,-13.915 13.493,-15.52 4.459,-0.925 8.783,1 13.501,1.349 2.054,0.154 4.143,-0.832 6.072,-0.674 C 18.083,-1.207 22.549,8.13 24.289,16.194 10.826,16.167 5.623,7.869 0,0"
             style="fill:#ddbc46;fill-opacity:1;fill-rule:nonzero;stroke:none"
             id="path1106"
             inkscape:connector-curvature="0" /></g><g
           id="g1108"
           transform="translate(558.002,204.9689)"><path
             d="M 0,0 C 8.224,-4.551 24.473,-2.971 27.669,5.398 19.561,12.205 3.014,9.506 0,0"
             style="fill:#ddbc46;fill-opacity:1;fill-rule:nonzero;stroke:none"
             id="path1110"
             inkscape:connector-curvature="0" /></g><g
           id="g1112"
           transform="translate(465.5219,186.0776)"><path
             d="M 0,0 C -9.467,-2.032 -16.717,-20.007 -8.095,-27.668 -2.342,-21.803 5.753,-11.076 0,0"
             style="fill:#ddbc46;fill-opacity:1;fill-rule:nonzero;stroke:none"
             id="path1114"
             inkscape:connector-curvature="0" /></g><g
           id="g1116"
           transform="translate(549.8763,204.9738)"><path
             d="M 0,0 C -5.172,-13.677 5.318,-21.668 15.52,-24.292 14.56,-11.979 9.946,-3.32 0,0"
             style="fill:#ddbc46;fill-opacity:1;fill-rule:nonzero;stroke:none"
             id="path1118"
             inkscape:connector-curvature="0" /></g><g
           id="g1120"
           transform="translate(576.8666,238.7153)"><path
             d="M 0,0 C 8.147,2.823 12.886,13.337 9.448,23.617 0.05,22.521 -3.792,9.926 0,0"
             style="fill:#ddbc46;fill-opacity:1;fill-rule:nonzero;stroke:none"
             id="path1122"
             inkscape:connector-curvature="0" /></g><g
           id="g1124"
           transform="translate(492.5178,184.7281)"><path
             d="M 0,0 C -1.457,-11.748 7.411,-22.144 16.869,-22.944 17.428,-9.111 11.476,-1.79 0,0"
             style="fill:#ddbc46;fill-opacity:1;fill-rule:nonzero;stroke:none"
             id="path1126"
             inkscape:connector-curvature="0" /></g><g
           id="g1128"
           transform="translate(465.5219,159.0865)"><path
             d="M 0,0 C 14.328,-1.434 24.555,5.671 25.645,19.569 12.189,17.953 4.244,10.826 0,0"
             style="fill:#ddbc46;fill-opacity:1;fill-rule:nonzero;stroke:none"
             id="path1130"
             inkscape:connector-curvature="0" /></g><g
           id="g1132"
           transform="translate(512.0831,185.4027)"><path
             d="M 0,0 C -3.321,-11.692 3.606,-23.486 16.197,-23.619 16.342,-10.202 10.257,-3.016 0,0"
             style="fill:#ddbc46;fill-opacity:1;fill-rule:nonzero;stroke:none"
             id="path1134"
             inkscape:connector-curvature="0" /></g><g
           id="g1136"
           transform="translate(533.6786,161.7838)"><path
             d="M 0,0 C 12.262,1.614 20.496,14.818 14.176,26.996 2.863,24.581 -1.04,14.764 0,0"
             style="fill:#ddbc46;fill-opacity:1;fill-rule:nonzero;stroke:none"
             id="path1138"
             inkscape:connector-curvature="0" /></g><g
           id="g1140"
           transform="translate(497.2378,314.2903)"><path
             d="M 0,0 C 4.944,10.625 0.666,25.173 -9.447,26.997 -15.774,17.496 -11.527,1.358 0,0"
             style="fill:#ddbc46;fill-opacity:1;fill-rule:nonzero;stroke:none"
             id="path1142"
             inkscape:connector-curvature="0" /></g><g
           id="g1144"
           transform="translate(555.9489,325.0894)"><path
             d="M 0,0 C -10.111,4.909 -26.451,1.016 -26.994,-10.122 -17.182,-18.077 -1.995,-10.189 0,0"
             style="fill:#ddbc46;fill-opacity:1;fill-rule:nonzero;stroke:none"
             id="path1146"
             inkscape:connector-curvature="0" /></g><g
           id="g1148"
           transform="translate(541.7756,308.214)"><path
             d="M 0,0 C -0.174,-9.505 16.526,-18.159 26.994,-10.791 23.308,-2.125 12.878,2.708 0,0"
             style="fill:#ddbc46;fill-opacity:1;fill-rule:nonzero;stroke:none"
             id="path1150"
             inkscape:connector-curvature="0" /></g><g
           id="g1152"
           transform="translate(570.1183,254.9102)"><path
             d="M 0,0 C -12.277,-0.436 -15.578,-14.345 -12.148,-26.319 -3.04,-23.212 4.236,-12.052 0,0"
             style="fill:#ddbc46;fill-opacity:1;fill-rule:nonzero;stroke:none"
             id="path1154"
             inkscape:connector-curvature="0" /></g><g
           id="g1156"
           transform="translate(528.2799,292.6967)"><path
             d="M 0,0 C 6.063,9.657 0.735,23.494 -10.122,24.296 -15.672,13.966 -7.895,3.208 0,0"
             style="fill:#ddbc46;fill-opacity:1;fill-rule:nonzero;stroke:none"
             id="path1158"
             inkscape:connector-curvature="0" /></g><g
           id="g1160"
           transform="translate(508.0381,246.8123)"><path
             d="M 0,0 C -0.087,-12.895 14.481,-18.127 26.315,-12.821 23.925,-2.698 12.07,3.909 0,0"
             style="fill:#ddbc46;fill-opacity:1;fill-rule:nonzero;stroke:none"
             id="path1162"
             inkscape:connector-curvature="0" /></g><g
           id="g1164"
           transform="translate(522.2045,337.2382)"><path
             d="M 0,0 C -12.03,-0.818 -19.141,-10.071 -17.544,-22.271 -6.268,-23.372 2.678,-12.853 0,0"
             style="fill:#ddbc46;fill-opacity:1;fill-rule:nonzero;stroke:none"
             id="path1166"
             inkscape:connector-curvature="0" /></g><g
           id="g1168"
           transform="translate(550.5474,213.0688)"><path
             d="M 0,0 C -13.559,6.454 -26.305,-0.799 -27.665,-14.168 -15.619,-14.942 -4.051,-9.46 0,0"
             style="fill:#ddbc46;fill-opacity:1;fill-rule:nonzero;stroke:none"
             id="path1170"
             inkscape:connector-curvature="0" /></g><g
           id="g1172"
           transform="translate(553.9224,237.3666)"><path
             d="M 0,0 C -1.974,10.516 -10.536,17.635 -23.615,14.842 -23.12,5.523 -13.161,-3.307 0,0"
             style="fill:#ddbc46;fill-opacity:1;fill-rule:nonzero;stroke:none"
             id="path1174"
             inkscape:connector-curvature="0" /></g><g
           id="g1176"
           transform="translate(565.3964,271.1078)"><path
             d="M 0,0 C -10.831,-1.57 -18.109,-10.208 -17.542,-20.921 -5.496,-20.152 -0.205,-12.619 0,0"
             style="fill:#ddbc46;fill-opacity:1;fill-rule:nonzero;stroke:none"
             id="path1178"
             inkscape:connector-curvature="0" /></g><g
           id="g1180"
           transform="translate(393.3171,303.4969)"><path
             d="M 0,0 C -5.876,-6.511 -8.032,-20.375 -4.724,-30.368 8.816,-30.604 10.603,-4.631 0,0"
             style="fill:#ddbc46;fill-opacity:1;fill-rule:nonzero;stroke:none"
             id="path1182"
             inkscape:connector-curvature="0" /></g><g
           id="g1184"
           transform="translate(464.1751,327.7915)"><path
             d="M 0,0 C -1.289,11.145 -11.54,18.775 -23.618,14.842 -21.972,4.185 -12.036,-4.084 0,0"
             style="fill:#ddbc46;fill-opacity:1;fill-rule:nonzero;stroke:none"
             id="path1186"
             inkscape:connector-curvature="0" /></g><g
           id="g1188"
           transform="translate(439.8793,310.9218)"><path
             d="M 0,0 C 7.412,10.506 1.573,27.494 -9.446,29.688 -13.339,17.444 -8.624,4.017 0,0"
             style="fill:#ddbc46;fill-opacity:1;fill-rule:nonzero;stroke:none"
             id="path1190"
             inkscape:connector-curvature="0" /></g><g
           id="g1192"
           transform="translate(437.1838,300.7946)"><path
             d="M 0,0 C -0.742,13.307 -11.924,19.434 -26.322,16.872 -23.589,5.207 -13.564,0.836 0,0"
             style="fill:#ddbc46;fill-opacity:1;fill-rule:nonzero;stroke:none"
             id="path1194"
             inkscape:connector-curvature="0" /></g><g
           id="g1196"
           transform="translate(510.7363,314.2903)"><path
             d="M 0,0 C -6.855,-2.981 -12.154,-16.665 -6.075,-24.292 0.694,-20.27 8.18,-7.334 0,0"
             style="fill:#ddbc46;fill-opacity:1;fill-rule:nonzero;stroke:none"
             id="path1198"
             inkscape:connector-curvature="0" /></g><g
           id="g1200"
           transform="translate(408.1653,298.771)"><path
             d="M 0,0 C 4.005,11.406 -1.145,24.195 -12.824,24.292 -16.891,12.632 -9.006,2.912 0,0"
             style="fill:#ddbc46;fill-opacity:1;fill-rule:nonzero;stroke:none"
             id="path1202"
             inkscape:connector-curvature="0" /></g><g
           id="g1204"
           transform="translate(478.3445,293.3725)"><path
             d="M 0,0 C 11.926,-2.213 22.786,5.186 22.945,18.896 10.046,21.655 0.057,14.1 0,0"
             style="fill:#ddbc46;fill-opacity:1;fill-rule:nonzero;stroke:none"
             id="path1206"
             inkscape:connector-curvature="0" /></g><g
           id="g1208"
           transform="translate(476.3202,346.6819)"><path
             d="M 0,0 C -6.946,-5.041 -12.221,-15.127 -10.798,-26.314 0.159,-25.888 8.261,-8.935 0,0"
             style="fill:#ddbc46;fill-opacity:1;fill-rule:nonzero;stroke:none"
             id="path1210"
             inkscape:connector-curvature="0" /></g><g
           id="g1212"
           transform="translate(545.1497,195.5242)"><path
             d="M 0,0 C -11.393,3.801 -24.806,-0.389 -26.315,-10.796 -14.296,-14.912 -3.444,-8.68 0,0"
             style="fill:#ddbc46;fill-opacity:1;fill-rule:nonzero;stroke:none"
             id="path1214"
             inkscape:connector-curvature="0" /></g><g
           id="g1216"
           transform="translate(460.1233,304.8437)"><path
             d="M 0,0 C 14.256,-5.146 22.74,6.264 23.619,18.895 10.297,18.047 2.704,11.471 0,0"
             style="fill:#ddbc46;fill-opacity:1;fill-rule:nonzero;stroke:none"
             id="path1218"
             inkscape:connector-curvature="0" /></g><g
           id="g1220"
           transform="translate(586.3047,245.5092)"><path
             d="M 0,0 C 0.004,0.5 -0.027,1.005 -0.076,1.51 -0.122,0.965 -0.099,0.46 0,0"
             style="fill:#ddbc46;fill-opacity:1;fill-rule:evenodd;stroke:none"
             id="path1222"
             inkscape:connector-curvature="0" /></g><g
           id="g1224"
           transform="translate(127.669,73.1186)"><path
             d="m 0,0 c 0,-8.266 -1.927,-17.748 -5.783,-28.44 -4.209,-7.656 -8.07,-11.495 -11.573,-11.495 -4.126,0.909 -8.858,4.745 -14.209,11.495 -1.402,2.025 -3.853,8.474 -7.366,19.367 v 0.597 l 0.531,0.605 c -2.105,5.452 -4.39,17.756 -6.839,36.913 v 0.603 l 0.524,0.607 -1.054,7.863 0.53,3.633 -0.53,6.658 v 14.518 l 0.53,4.237 -0.53,2.416 v 6.654 l -0.524,0.61 0.524,0.6 v 6.051 h 1.054 c 0,-1.208 0.35,-1.817 1.049,-1.817 h 0.526 l 0.527,0.609 1.053,-1.817 c 7.017,-5.343 10.523,-8.569 10.523,-9.677 4.209,-2.121 6.312,-4.337 6.312,-6.657 l 3.157,-4.239 c 1.053,0 1.58,-0.602 1.58,-1.812 1.398,-1.207 2.103,-2.422 2.103,-3.628 3.422,-4.539 7.451,-12.809 12.102,-24.809 C -2.979,21.477 -1.046,13.412 0,5.441 L -0.522,1.815 Z M 5.793,6.654 C 5.088,13.109 2.987,21.781 -0.522,32.671 l -3.156,9.077 h 0.525 c -2.103,1.309 -3.156,3.126 -3.156,5.446 l -2.63,5.441 c -3.861,5.146 -5.788,8.17 -5.788,9.079 -1.753,1.409 -2.629,2.823 -2.629,4.236 -4.212,3.724 -6.67,6.752 -7.369,9.074 h -0.521 l -0.533,-0.605 c 0,1.21 -0.698,2.422 -2.099,3.629 -3.687,2.923 -6.665,5.95 -8.949,9.076 h -0.522 l -0.529,-0.604 c -2.1,1.311 -3.154,2.316 -3.154,3.024 l -0.528,-0.605 -3.679,3.632 v 7.866 c 1.75,2.42 2.975,3.629 3.679,3.629 2.106,0.199 4.383,2.221 6.838,6.049 3.773,1.411 6.755,3.428 8.943,6.052 6.055,2.518 11.489,6.551 16.313,12.103 4.21,0 6.313,3.421 6.313,10.282 v 0.607 l -5.259,-3.026 c -7.718,-7.259 -12.807,-10.891 -15.259,-10.891 -5,-4.64 -9.56,-8.266 -13.678,-10.89 h -0.529 l -0.522,0.604 c 0,-0.808 -1.76,-2.217 -5.266,-4.237 h -1.573 l 0.524,1.817 -0.524,2.42 1.051,21.177 1.048,1.815 v 1.814 c 0,12.503 0.876,18.756 2.635,18.756 l -1.055,1.21 v 0.602 l 0.528,0.613 v 1.812 c 0,6.449 0.527,10.286 1.578,11.492 v 0.608 l 2.105,23.599 -0.194,1.755 c 0.135,1.538 0.277,2.995 0.42,4.383 l 0.296,0.519 v 2.29 c 0.231,2.045 0.467,3.897 0.712,5.594 0.438,1.76 1.073,3.568 1.921,5.426 l -0.491,2.252 c 0.134,0.527 0.272,1.024 0.412,1.462 l -0.449,0.449 v 1.057 c 0.12,0.46 0.239,0.922 0.354,1.369 l 1.226,1.879 -0.502,0.868 c 2.021,7.544 3.532,12.146 4.529,13.786 4.562,6.548 8.724,10.366 12.487,11.439 3.178,0.19 6.885,-3.014 11.106,-9.593 0.083,-0.131 0.164,-0.252 0.247,-0.384 1.993,-4.614 3.551,-8.998 4.697,-13.151 1.673,-0.465 3.373,-0.888 5.081,-1.294 -0.479,1.6 -0.779,3.214 -0.884,4.84 0,0.013 -0.003,0.027 -0.003,0.04 l -0.137,2.237 c -1.051,1.247 -2.589,5.083 -4.611,11.513 l -4.37,7.595 c -1.142,-0.072 -2.017,1.001 -2.641,3.21 l -6.5,2.409 -3.888,-0.237 c -5.403,-2.204 -8.997,-4.672 -10.783,-7.398 -4.344,-6.323 -7.013,-11.592 -8.045,-15.828 -1.877,-7.563 -1.401,-5.805 -3.775,-18.956 l -0.426,-3.197 v -1.543 l -0.437,-0.572 0.1,-1.649 -0.189,-1.081 0.274,-0.311 0.022,-0.314 c 0.003,-0.081 0,-0.151 0.005,-0.235 l -0.301,-0.346 v -0.602 c 0,-4.947 -0.527,-9.383 -1.58,-13.313 v -1.026 l -0.086,-0.327 0.066,-1.123 0.02,0.002 v -7.21 l -1.049,-1.21 c -1.405,-16.336 -2.454,-25.207 -3.159,-26.62 l 1.051,-1.207 -1.051,-4.843 v -4.232 l -1.051,-1.814 v -5.45 l 0.53,-2.417 -1.584,-14.522 v -2.42 h -1.048 v -0.607 l 0.527,-3.028 h -0.527 l -0.527,-0.601 0.527,-1.815 -0.527,-3.025 1.054,-2.422 V 108.3 c -3.421,-2.825 -6.759,-4.234 -9.998,-4.234 l -2.632,0.603 c 0,-1.51 -4.388,-2.925 -13.151,-4.232 l -5.265,1.206 -5.784,-1.206 -1.579,0.606 -7.369,-1.217 c -4.559,0 -6.838,-1.811 -6.838,-5.441 l 1.58,-3.026 c 3.858,-0.404 5.788,-1.009 5.788,-1.815 l 2.103,0.605 2.104,-0.605 h 2.632 l 4.208,1.212 h 5.788 l 6.311,1.815 c 3.51,-0.406 5.265,-1.011 5.265,-1.815 l 2.629,0.603 h 4.731 l 1.057,-1.21 c 5.257,-2.219 7.893,-4.036 7.893,-5.445 l -0.527,-6.656 v -4.234 c 0,-5.244 0.35,-8.872 1.054,-10.89 h -0.527 l -0.527,-0.607 0.527,-3.63 -0.527,-1.812 0.527,-3.632 v -4.837 l -1.054,-1.819 1.054,-1.21 1.048,-21.784 H -50.5 v -1.209 l 2.626,-7.866 v -0.603 l -0.521,-0.604 c 0.696,-1.818 1.05,-4.439 1.05,-7.87 V 1.815 l 1.052,-1.21 c 1.841,-11.291 3.419,-17.948 4.733,-19.969 0,-5.142 3.507,-12.2 10.523,-21.176 2.103,-2.819 6.134,-5.243 12.103,-7.261 h 4.207 l 6.838,3.027 c 0.531,2.42 1.402,3.629 2.633,3.629 l 4.21,8.468 c 1.753,7.063 3.154,11.297 4.205,12.711 v 2.418 c 0,3.631 0.877,7.26 2.634,10.889 l -0.527,3.635 v 6.653 z"
             style="fill:#2e4959;fill-opacity:1;fill-rule:nonzero;stroke:none"
             id="path1226"
             inkscape:connector-curvature="0" /></g><g
           id="g1228"
           transform="translate(151.6839,199.6866)"><path
             d="M 0,0 -0.53,-0.603 0,-3.024 C -5.614,-19.563 -9.121,-27.83 -10.528,-27.83 v -0.607 L -10,-29.048 c -2.893,-5.543 -5.351,-9.175 -7.364,-10.888 -0.441,-2.325 -1.492,-3.928 -3.156,-4.836 h -1.057 l -1.047,4.232 v 0.604 l 0.526,0.607 -1.051,5.442 c 0.083,2.826 0.438,4.24 1.051,4.24 2.803,8.973 5.258,15.224 7.363,18.758 C -8.42,-4.035 -4.036,0 -1.581,1.206 H -0.53 L 0,0.607 Z m 27.883,-39.329 c -6.315,-5.344 -9.472,-8.774 -9.472,-10.285 h -1.053 l -0.523,0.602 -1.055,-1.209 h -2.102 c -2.809,0 -4.734,7.664 -5.785,22.994 0.699,13.815 1.751,24.504 3.151,32.066 v 0.604 l -0.525,0.606 c 0.703,0 1.051,1.008 1.051,3.024 v 1.212 c -0.875,1.711 -2.101,2.922 -3.677,3.629 -3.075,0 -7.285,-2.217 -12.63,-6.654 H -5.263 L -5.791,7.863 C -7.457,5.443 -10.611,3.024 -15.258,0.607 -25.78,-11.904 -31.045,-26.021 -31.045,-41.75 v -2.419 l 0.527,-4.238 -0.527,-0.605 c 0,-4.634 1.581,-7.86 4.739,-9.677 h 1.574 c 3.424,0 7.452,3.226 12.103,9.677 2.018,6.455 3.768,9.683 5.263,9.683 1.925,6.149 4.207,10.587 6.836,13.308 L 0,-35.094 C 1.925,-51.23 6.135,-59.295 12.625,-59.295 l 4.733,1.21 c 4.56,2.823 10.525,10.686 17.886,23.595 0.236,0.398 0.452,0.788 0.667,1.179 -0.355,1.123 -0.836,2.446 -1.449,3.965 -4.385,-5.138 -6.579,-8.466 -6.579,-9.983"
             style="fill:#2e4959;fill-opacity:1;fill-rule:nonzero;stroke:none"
             id="path1230"
             inkscape:connector-curvature="0" /></g><g
           id="g1232"
           transform="translate(194.495,169.1441)"><path
             d="m 0,0 -0.013,0.604 0.508,0.616 -1.33,11.47 0.51,0.62 -0.57,1.801 0.025,20.58 c -0.041,1.703 -0.798,3.911 -2.266,6.599 -4.85,-2.54 -7.254,-4.619 -7.216,-6.231 L -9.578,25.792 -9.747,11.264 -9.015,2.81 c 0.239,-0.563 0.459,-1.098 0.666,-1.614 0.578,0.675 1.186,1.38 1.836,2.119 0.527,4.026 1.229,6.046 2.107,6.046 h 1.051 V 8.153 c 0,-3.046 -1.19,-6.69 -3.545,-10.922 0.471,-1.487 0.715,-2.632 0.737,-3.434 l -0.525,-0.013 0.6,-3.011 0.014,-0.602 -0.45,-3.036 c 0.699,0.015 1.081,-1.391 1.151,-4.209 l 0.086,-3.63 c 2.204,-3.887 3.656,-5.865 4.36,-5.948 2.629,0.064 4.161,1.917 4.603,5.558 l -0.592,2.41 C 2.509,-9.423 1.476,-3.191 0,0"
             style="fill:#2e4959;fill-opacity:1;fill-rule:nonzero;stroke:none"
             id="path1234"
             inkscape:connector-curvature="0" /></g><g
           id="g1236"
           transform="translate(191.1401,178.5052)"><path
             d="m 0,0 h -1.051 c -0.878,0 -1.58,-2.02 -2.107,-6.046 -0.65,-0.739 -1.259,-1.444 -1.836,-2.119 0.613,-1.519 1.093,-2.842 1.448,-3.965 C -1.19,-7.898 0,-4.254 0,-1.208 Z"
             style="fill:#2e4959;fill-opacity:1;fill-rule:nonzero;stroke:none"
             id="path1238"
             inkscape:connector-curvature="0" /></g><g
           id="g1240"
           transform="translate(288.6285,251.7034)"><path
             d="M 0,0 C 0.059,0.505 -0.942,1.024 -3,1.561 -15.829,0.494 -23.922,-0.81 -27.277,-2.356 l -0.523,0.062 -0.452,0.661 -24.142,-2.718 -0.523,0.06 -0.449,0.658 -2.232,-0.958 -1.046,0.117 -0.909,1.32 0.21,1.804 1.828,11.361 -0.317,1.865 0.522,-0.061 c 0.22,1.903 0.726,3.272 1.532,4.092 l -0.908,1.32 0.93,3.545 0.07,0.6 -0.452,0.664 1.912,2.825 0.066,0.6 -0.451,0.659 4.925,15.272 -0.248,2.464 1.181,1.084 -0.836,1.92 0.069,0.603 0.589,0.545 1.39,2.885 c 3.903,11.734 6.625,18.522 8.162,20.38 l 0.067,0.602 -0.457,0.659 c 2.425,2.664 3.815,5.551 4.17,8.656 0.126,1.103 -0.632,2.204 -2.269,3.306 l -2.092,0.24 c -4.011,-4.21 -6.256,-8.42 -6.737,-12.624 -11.199,-29.98 -17.947,-54.99 -20.24,-75.027 l -0.067,-0.602 0.452,-0.657 c -0.197,-1.709 0.341,-2.219 -2.808,-2.427 l 0.07,0.603 -7.253,-1.11 -3.064,0.959 c -1.048,0.118 -1.64,-0.422 -1.777,-1.626 -0.605,0.067 -1.18,0.059 -1.732,-0.016 0.423,-3.189 0.234,-6.294 -0.567,-9.243 l 13.21,1.735 c 0.694,-0.082 0.931,-1.124 0.7,-3.125 l -0.065,-0.601 -0.871,-2.947 0.317,-1.861 -0.069,-0.604 -0.592,-0.544 0.456,-0.656 -0.617,-5.412 -1.419,-7.749 -0.292,-16.41 c 0.21,-14.34 2.819,-27.021 7.824,-38.049 l 4.016,-6.546 c 7.237,-6.923 12.297,-10.546 15.173,-10.876 l 8.367,-0.958 c 3.481,-0.398 5.268,-0.196 5.359,0.608 6.684,0.551 14.053,4.788 22.104,12.694 l 0.415,3.602 -1.565,0.181 -4.209,-4.391 c -7.367,-3.419 -14.835,-5.406 -22.395,-5.96 l 0.07,0.601 c -3.662,0.419 -6.183,1.521 -7.565,3.301 l -2.161,-0.358 -1.157,3.782 -0.591,-0.542 -1.499,0.781 -6.561,7.453 c -4.858,9.99 -6.995,17.547 -6.409,22.657 -2.064,1.25 -2.736,9.242 -2.022,23.983 l 0.797,2.344 1.092,18.751 1.316,2.286 0.07,0.601 -0.452,0.662 c 0.586,3.589 1.49,5.309 2.711,5.172 l 2.022,-0.841 c 0.137,1.198 0.553,1.761 1.251,1.68 l 1.565,-0.177 0.458,-0.66 c 2.972,2.092 5.553,3.017 7.731,2.768 l 4.702,-0.539 0.594,0.539 c 6.059,0.529 11.141,1.774 15.255,3.737 l 0.52,-0.06 0.458,-0.659 c 0.532,0.849 4.379,2.032 11.522,3.555 l -0.07,-0.608 c 6.052,0.427 9.127,1.093 9.232,1.995 l 1.503,-0.783 c 1.255,0.158 2.394,0.319 3.432,0.484 l 0.549,3.486 z"
             style="fill:#2e4959;fill-opacity:1;fill-rule:nonzero;stroke:none"
             id="path1242"
             inkscape:connector-curvature="0" /></g><g
           id="g1244"
           transform="translate(296.4779,234.0333)"><path
             d="M 0,0 0.527,5.448 V 8.473 L 1.578,9.68 1.051,13.913 v 1.818 l 0.527,0.608 c 1.143,13.311 2.545,22.584 4.21,27.826 4.557,15.736 11.046,23.604 19.466,23.604 h 2.108 c 5.963,-1.314 8.942,-4.341 8.942,-9.081 0,-5.546 -2.81,-13.614 -8.421,-24.202 C 22.711,25.006 19.378,19.968 17.888,19.361 14.91,13.713 12.805,10.89 11.577,10.89 5.702,2.217 2.017,-2.219 0.527,-2.418 Z m 55.764,-85.914 h -0.52 l -2.63,-3.022 H 51.56 c -2.102,2.82 -3.157,5.642 -3.157,8.468 l -5.261,23.595 0.528,2.419 -1.055,6.052 c -1.051,18.155 -2.806,27.227 -5.261,27.227 h -1.05 C 31.04,-23.193 28.413,-24.806 28.413,-26.019 22.888,-30.957 17.975,-39.227 13.681,-50.824 10.082,-61.311 7.627,-66.959 6.315,-67.764 H 5.788 v 4.235 c -1.4,6.858 -2.104,13.108 -2.104,18.759 v 1.21 l 0.526,0.602 H 3.684 c -0.705,6.049 -1.404,9.073 -2.106,9.073 l -1.051,16.339 c 0.613,5.24 1.662,7.864 3.157,7.864 l 13.677,18.155 5.261,8.468 c 2.458,1.715 3.681,2.923 3.681,3.628 8.772,14.725 13.681,26.221 14.734,34.487 l -0.525,3.027 v 0.605 l 0.525,0.608 c -0.354,4.027 -1.053,6.852 -2.104,8.473 h 0.526 c 0,1 -2.279,3.826 -6.841,8.463 l -0.527,-0.599 -1.572,1.207 c -2.899,0 -4.652,0.403 -5.265,1.21 C 19.289,76.737 16.313,75.328 16.313,73.819 12.805,72.805 11.05,71.192 11.05,68.976 H 9.993 C 8.068,65.347 6.834,63.53 6.315,63.53 L 1.051,51.433 c -1.4,-7.268 -2.455,-10.897 -3.153,-10.897 l 0.528,-1.812 c -0.442,-4.441 -0.969,-6.658 -1.579,-6.658 l -2.17,-13.908 3.434,0.662 2.612,-0.301 0.907,-1.32 C 1.528,16.288 -0.978,15.446 -5.872,14.672 l -0.967,-6.199 1.051,-9.076 -0.523,-1.815 0.523,-6.657 -0.523,-1.816 -12.631,-14.52 c -2.105,-1.312 -4.379,-3.732 -6.837,-7.261 l -6.838,-7.264 c -3.509,-1.508 -5.267,-3.323 -5.267,-5.444 l 1.054,-4.839 h 1.055 l 20.519,19.361 c 2.976,4.237 5.788,7.259 8.417,9.076 h 0.528 l 1.05,-6.656 -0.527,-1.809 0.527,-5.45 c 2.455,-14.119 4.029,-27.832 4.735,-41.142 l -0.528,-2.42 0.528,-5.446 v -7.866 c 0,-1.111 1.93,-2.52 5.79,-4.237 l 0.524,0.609 -0.524,0.603 0.524,3.025 c 2.455,2.115 3.686,4.333 3.686,6.657 2.365,14.316 7.974,29.444 16.829,45.376 l 5.264,6.653 c 1.051,0 2.28,-7.457 3.685,-22.383 l -0.528,-0.605 v -0.604 h 1.052 v -3.63 l 1.051,-3.632 -0.523,-2.419 1.05,-1.21 0.528,-3.632 c 2.801,-16.539 7.541,-24.808 14.204,-24.808 4.208,3.229 6.316,5.244 6.316,6.056 v 1.816 z"
             style="fill:#2e4959;fill-opacity:1;fill-rule:nonzero;stroke:none"
             id="path1246"
             inkscape:connector-curvature="0" /></g><g
           id="g1248"
           transform="translate(298.1075,251.2323)"><path
             d="M 0,0 -0.906,1.32 -3.519,1.621 -6.952,0.959 -7.501,-2.527 C -2.608,-1.753 -0.102,-0.911 0,0"
             style="fill:#2e4959;fill-opacity:1;fill-rule:nonzero;stroke:none"
             id="path1250"
             inkscape:connector-curvature="0" /></g><g
           id="g1252"
           transform="translate(188.7758,221.4428)"><path
             d="M 0,0 C 12.75,4.245 18.696,15.679 13.209,28.658 -1.839,25.416 -2.506,13.652 0,0"
             style="fill:#ddbc46;fill-opacity:1;fill-rule:nonzero;stroke:none"
             id="path1254"
             inkscape:connector-curvature="0" /></g></g><text
         id="text1163"
         y="364.71677"
         x="181.61334"
         style="font-style:normal;font-weight:normal;font-size:40px;line-height:1.25;font-family:sans-serif;letter-spacing:6px;word-spacing:0px;fill:#2e4959;fill-opacity:1;stroke:none;stroke-width:1"
         xml:space="preserve"><tspan
           style="font-style:normal;font-variant:normal;font-weight:300;font-stretch:normal;font-size:53.33333206px;font-family:Gotham;-inkscape-font-specification:'Gotham, Light';font-variant-ligatures:normal;font-variant-caps:normal;font-variant-numeric:normal;font-feature-settings:normal;text-align:start;letter-spacing:0px;writing-mode:lr-tb;text-anchor:start;fill:#2e4959;fill-opacity:1;stroke-width:1"
           y="364.71677"
           x="181.61334"
           id="tspan1161"
           sodipodi:role="line">PRESBYTERIAN</tspan></text>
<text
         id="text1169"
         y="408.7399"
         x="183.85068"
         style="font-style:normal;font-weight:normal;font-size:40px;line-height:1.25;font-family:sans-serif;letter-spacing:0px;word-spacing:0px;fill:#2e4959;fill-opacity:1;stroke:none;stroke-width:1"
         xml:space="preserve"><tspan
           style="font-style:normal;font-variant:normal;font-weight:300;font-stretch:normal;font-size:45.33333206px;font-family:Gotham;-inkscape-font-specification:'Gotham, Light';font-variant-ligatures:normal;font-variant-caps:normal;font-variant-numeric:normal;font-feature-settings:normal;text-align:start;letter-spacing:0.5px;writing-mode:lr-tb;text-anchor:start;fill:#2e4959;fill-opacity:1;stroke-width:1"
           y="408.7399"
           x="183.85068"
           id="tspan1167"
           sodipodi:role="line">GERMANTOWN</tspan></text>
</g></g></svg>